<?xml version="1.0" standalone="no"?>
<!DOCTYPE svg PUBLIC "-//W3C//DTD SVG 20010904//EN"
 "http://www.w3.org/TR/2001/REC-SVG-20010904/DTD/svg10.dtd">
<svg version="1.0" xmlns="http://www.w3.org/2000/svg"
 width="512.000000pt" height="512.000000pt" viewBox="0 0 512.000000 512.000000"
 preserveAspectRatio="xMidYMid meet">
<metadata>
Created by potrace 1.11, written by Peter Selinger 2001-2013
</metadata>
<g transform="translate(0.000000,512.000000) scale(0.100000,-0.100000)"
fill="#000000" stroke="none">
<path d="M2469 4176 c-2 -2 -35 -6 -73 -10 -393 -37 -807 -264 -1061 -581 -22
-27 -42 -52 -45 -55 -16 -14 -105 -158 -139 -222 -77 -149 -141 -343 -162
-492 -6 -44 -12 -90 -14 -101 -2 -11 -4 -45 -4 -75 l-1 -56 -93 -33 c-193 -69
-257 -91 -417 -146 -92 -31 -172 -60 -180 -65 -11 -7 -2 -28 42 -102 347 -581
906 -987 1621 -1177 40 -11 126 -35 192 -54 119 -35 146 -40 260 -54 117 -15
371 -8 465 12 14 3 41 8 60 11 70 12 179 45 261 78 382 155 685 435 863 800
43 88 109 272 121 335 2 14 7 39 11 54 12 59 28 201 28 269 l1 46 150 52 c82
28 159 55 170 60 11 5 88 32 170 60 83 28 165 57 182 65 l33 15 -54 87 c-188
310 -389 531 -675 742 -145 107 -425 262 -571 316 -119 44 -320 113 -320 110
0 -2 -28 5 -62 16 -34 10 -78 21 -96 24 -19 3 -37 7 -41 10 -4 2 -65 13 -137
25 -71 11 -140 23 -154 26 -29 6 -326 15 -331 10z m241 -540 c93 -8 239 -50
337 -96 254 -119 444 -325 557 -604 16 -38 41 -134 54 -206 10 -49 9 -284 -1
-345 -13 -87 -67 -247 -110 -328 -278 -521 -917 -729 -1440 -467 -119 61 -194
115 -292 215 -238 243 -346 571 -299 909 68 488 474 878 960 922 38 3 70 7 71
8 3 3 75 -1 163 -8z"/>
</g>
</svg>
